<mxfile host="Electron" modified="2023-06-05T02:49:42.622Z" agent="Mozilla/5.0 (Windows NT 10.0; Win64; x64) AppleWebKit/537.36 (KHTML, like Gecko) draw.io/21.2.8 Chrome/112.0.5615.165 Electron/24.2.0 Safari/537.36" etag="2lbyw-id4V976rrYM3S2" version="21.2.8" type="device">
  <diagram name="Page-1" id="BFCacSCY0WclMpug5E6L">
    <mxGraphModel dx="915" dy="683" grid="0" gridSize="10" guides="1" tooltips="1" connect="1" arrows="1" fold="1" page="0" pageScale="1" pageWidth="850" pageHeight="1100" math="0" shadow="0">
      <root>
        <mxCell id="0" />
        <mxCell id="1" parent="0" />
        <mxCell id="-QA9U93P_lJ9hC2jbUXb-2" value="" style="swimlane;startSize=0;" vertex="1" parent="1">
          <mxGeometry x="280" y="200" width="330" height="490" as="geometry" />
        </mxCell>
        <mxCell id="-QA9U93P_lJ9hC2jbUXb-3" value="&lt;u&gt;CalTracker System&lt;/u&gt;" style="text;html=1;align=center;verticalAlign=middle;resizable=0;points=[];autosize=1;strokeColor=none;fillColor=none;" vertex="1" parent="-QA9U93P_lJ9hC2jbUXb-2">
          <mxGeometry x="120" y="10" width="130" height="30" as="geometry" />
        </mxCell>
        <mxCell id="-QA9U93P_lJ9hC2jbUXb-5" value="Track Calories" style="ellipse;whiteSpace=wrap;html=1;" vertex="1" parent="-QA9U93P_lJ9hC2jbUXb-2">
          <mxGeometry x="120" y="80" width="120" height="80" as="geometry" />
        </mxCell>
        <mxCell id="-QA9U93P_lJ9hC2jbUXb-6" value="View History" style="ellipse;whiteSpace=wrap;html=1;" vertex="1" parent="-QA9U93P_lJ9hC2jbUXb-2">
          <mxGeometry x="120" y="210" width="120" height="80" as="geometry" />
        </mxCell>
        <mxCell id="-QA9U93P_lJ9hC2jbUXb-7" value="Calculate BMI" style="ellipse;whiteSpace=wrap;html=1;" vertex="1" parent="-QA9U93P_lJ9hC2jbUXb-2">
          <mxGeometry x="120" y="330" width="120" height="80" as="geometry" />
        </mxCell>
        <mxCell id="-QA9U93P_lJ9hC2jbUXb-4" value="User" style="shape=umlActor;verticalLabelPosition=bottom;verticalAlign=top;html=1;outlineConnect=0;" vertex="1" parent="1">
          <mxGeometry x="190" y="410" width="30" height="60" as="geometry" />
        </mxCell>
        <mxCell id="-QA9U93P_lJ9hC2jbUXb-9" value="" style="endArrow=none;html=1;rounded=0;entryX=0;entryY=0.5;entryDx=0;entryDy=0;exitX=1;exitY=0.3333333333333333;exitDx=0;exitDy=0;exitPerimeter=0;" edge="1" parent="1" source="-QA9U93P_lJ9hC2jbUXb-4" target="-QA9U93P_lJ9hC2jbUXb-5">
          <mxGeometry width="50" height="50" relative="1" as="geometry">
            <mxPoint x="320" y="420" as="sourcePoint" />
            <mxPoint x="370" y="370" as="targetPoint" />
          </mxGeometry>
        </mxCell>
        <mxCell id="-QA9U93P_lJ9hC2jbUXb-10" value="" style="endArrow=none;html=1;rounded=0;entryX=0;entryY=0.5;entryDx=0;entryDy=0;exitX=1;exitY=0.3333333333333333;exitDx=0;exitDy=0;exitPerimeter=0;" edge="1" parent="1" source="-QA9U93P_lJ9hC2jbUXb-4" target="-QA9U93P_lJ9hC2jbUXb-6">
          <mxGeometry width="50" height="50" relative="1" as="geometry">
            <mxPoint x="280" y="480" as="sourcePoint" />
            <mxPoint x="330" y="430" as="targetPoint" />
          </mxGeometry>
        </mxCell>
        <mxCell id="-QA9U93P_lJ9hC2jbUXb-11" value="" style="endArrow=none;html=1;rounded=0;entryX=0;entryY=0.5;entryDx=0;entryDy=0;exitX=1;exitY=0.3333333333333333;exitDx=0;exitDy=0;exitPerimeter=0;" edge="1" parent="1" source="-QA9U93P_lJ9hC2jbUXb-4" target="-QA9U93P_lJ9hC2jbUXb-7">
          <mxGeometry width="50" height="50" relative="1" as="geometry">
            <mxPoint x="320" y="420" as="sourcePoint" />
            <mxPoint x="370" y="370" as="targetPoint" />
          </mxGeometry>
        </mxCell>
      </root>
    </mxGraphModel>
  </diagram>
</mxfile>
